<?xml version="1.0" standalone="no"?>
<!DOCTYPE svg PUBLIC "-//W3C//DTD SVG 20010904//EN"
 "http://www.w3.org/TR/2001/REC-SVG-20010904/DTD/svg10.dtd">
<svg version="1.0" xmlns="http://www.w3.org/2000/svg"
 width="1536.000000pt" height="1024.000000pt" viewBox="0 0 1536.000000 1024.000000"
 preserveAspectRatio="xMidYMid meet">

<g transform="translate(0.000000,1024.000000) scale(0.100000,-0.100000)"
fill="#000000" stroke="none">
<path d="M8572 9057 c-6 -12 -13 -74 -15 -137 -9 -205 -56 -359 -133 -434 -21
-20 -86 -62 -144 -93 -159 -84 -197 -108 -342 -215 -185 -136 -324 -205 -683
-340 -195 -73 -317 -103 -498 -123 -169 -18 -187 -19 -187 -2 0 24 91 161 138
210 26 26 105 86 175 134 138 91 211 158 284 256 86 118 114 189 187 482 25
99 48 191 52 205 27 98 -80 -151 -142 -330 -75 -215 -105 -271 -190 -355 -69
-68 -104 -93 -309 -218 -151 -91 -207 -139 -294 -246 -91 -112 -134 -150 -218
-189 -57 -26 -62 -27 -233 -26 -170 1 -182 2 -430 53 -357 74 -577 84 -748 35
-119 -35 -255 -122 -407 -263 -129 -120 -283 -246 -386 -316 -41 -27 -110 -77
-154 -110 -239 -179 -257 -185 -392 -135 -49 17 -108 41 -133 53 -42 20 -45
25 -48 64 -2 29 13 90 52 210 30 92 70 215 88 273 72 229 170 308 424 344 167
23 221 57 344 220 161 213 387 388 550 425 79 18 181 13 286 -15 169 -45 216
-53 304 -54 104 0 166 16 250 64 171 97 229 110 389 82 120 -20 185 -20 250 1
53 17 123 69 142 106 l12 22 -24 -21 c-77 -67 -168 -79 -366 -49 -157 24 -222
17 -364 -37 -112 -42 -116 -43 -229 -42 -103 1 -133 6 -285 47 -200 55 -316
70 -420 57 -103 -13 -120 -18 -206 -60 -127 -61 -202 -128 -437 -387 -98 -109
-152 -140 -316 -178 -136 -32 -193 -62 -266 -143 -32 -36 -62 -62 -68 -58 -13
8 20 119 59 203 72 151 136 180 335 151 72 -10 87 -10 127 6 24 9 52 25 61 35
17 18 15 19 -66 14 -69 -5 -102 -1 -192 22 -151 38 -240 25 -322 -48 -63 -56
-145 -225 -179 -370 -14 -60 -32 -122 -40 -138 -22 -42 -57 -47 -103 -14 -58
43 -122 107 -138 138 -21 39 -37 24 -29 -27 11 -62 39 -109 97 -163 133 -123
146 -138 157 -181 24 -89 -47 -331 -109 -370 -15 -9 -47 -8 -157 9 -157 23
-253 18 -385 -22 -211 -62 -301 -158 -314 -335 -4 -50 2 -159 16 -299 36 -365
12 -533 -115 -800 -122 -256 -324 -464 -560 -576 -128 -60 -226 -101 -231 -96
-2 2 5 30 16 63 27 78 73 262 101 404 30 147 33 433 7 575 -63 344 -80 462
-85 585 -7 176 5 221 86 322 98 122 134 213 171 433 38 225 59 282 123 349 71
73 132 94 689 230 435 107 530 136 605 188 58 39 82 74 148 209 60 125 82 155
120 165 13 3 90 -9 170 -26 208 -46 267 -42 400 29 70 37 105 51 122 47 30 -8
30 7 0 23 -33 18 -75 16 -136 -4 -85 -28 -242 -17 -405 29 -249 69 -300 53
-422 -131 -67 -103 -79 -115 -132 -142 -168 -85 -997 -278 -1105 -257 -50 9
-101 56 -131 119 -25 53 -71 232 -102 392 -27 137 -25 341 3 429 26 82 6 70
-24 -14 -49 -134 -53 -303 -16 -597 23 -174 23 -343 2 -400 -9 -23 -48 -99
-87 -170 -82 -148 -112 -218 -154 -358 -43 -143 -86 -230 -153 -305 -32 -35
-72 -94 -89 -130 -29 -62 -30 -71 -34 -225 -2 -88 -8 -164 -12 -168 -20 -22
-196 105 -269 192 -62 75 -110 175 -155 323 -48 160 -59 223 -52 293 13 129
87 217 274 327 177 105 265 213 297 365 20 92 17 120 -5 53 -69 -211 -112
-256 -380 -395 -114 -59 -147 -81 -213 -146 l-77 -77 0 122 c0 172 22 264 123
518 100 249 167 425 167 436 0 34 -249 -458 -310 -614 -70 -180 -84 -255 -85
-454 0 -195 11 -266 72 -453 19 -60 32 -111 30 -114 -3 -2 -76 45 -163 105
-162 111 -256 172 -268 172 -3 0 -6 -38 -6 -84 l0 -84 58 -32 c115 -64 288
-204 432 -349 191 -192 446 -470 488 -532 63 -93 99 -248 89 -382 -7 -92 -42
-216 -63 -224 -7 -3 -35 9 -62 26 -118 75 -222 108 -438 136 -209 27 -290 55
-425 150 l-79 55 0 -152 0 -153 63 -37 c98 -58 176 -86 355 -129 92 -22 195
-51 229 -65 111 -46 254 -148 273 -195 29 -68 -24 -214 -108 -298 -89 -89
-174 -119 -423 -151 -87 -11 -168 -28 -194 -39 -53 -24 -145 -91 -174 -127
l-21 -27 1 -1076 0 -1076 25 118 c34 167 79 319 192 657 243 724 297 834 436
898 80 37 131 44 501 72 77 6 257 29 400 51 358 56 419 50 562 -57 68 -51 103
-114 143 -254 45 -158 68 -204 140 -285 75 -84 76 -86 140 -261 102 -276 155
-360 259 -408 41 -19 67 -21 255 -24 249 -3 252 -4 349 -121 78 -95 128 -144
175 -171 l37 -22 -37 39 c-37 38 -99 139 -153 247 -72 144 -162 195 -355 203
-163 6 -176 9 -205 47 -31 41 -52 97 -103 286 -58 213 -56 197 -29 224 17 16
40 25 83 31 32 4 94 18 137 32 104 32 145 70 198 182 48 101 82 141 120 141
26 0 162 -52 185 -71 7 -6 13 -69 17 -167 6 -181 25 -269 87 -399 67 -137 175
-216 368 -267 51 -13 104 -31 117 -40 34 -23 32 -2 -2 22 -16 10 -79 45 -141
77 -161 81 -213 143 -273 320 -21 62 -24 88 -24 227 0 86 3 160 7 164 4 3 31
-3 59 -16 29 -12 95 -35 148 -51 182 -57 184 -58 315 -247 43 -63 101 -136
129 -163 55 -53 133 -89 195 -89 l37 0 -56 24 c-118 48 -170 104 -259 280 -39
75 -70 142 -70 148 0 15 120 2 242 -28 178 -43 310 -120 368 -217 11 -18 20
-42 20 -54 0 -13 5 -23 11 -23 20 0 0 82 -34 138 -87 144 -287 247 -612 313
-265 54 -393 125 -369 203 17 58 208 209 349 276 152 72 217 85 425 84 134 0
205 -6 303 -23 113 -20 304 -65 362 -85 11 -4 2 4 -20 18 -91 58 -300 132
-495 173 -63 13 -129 18 -260 18 -150 0 -188 -3 -265 -23 -102 -27 -237 -89
-339 -156 -38 -26 -70 -45 -71 -44 -7 7 41 163 86 286 44 118 101 279 124 347
25 76 -194 -319 -287 -515 -130 -275 -116 -255 -168 -254 -25 0 -85 15 -135
33 -120 44 -170 49 -227 23 -47 -20 -75 -50 -160 -172 -74 -104 -166 -154
-232 -126 -63 26 -97 84 -257 441 -35 77 -87 181 -116 232 -29 51 -53 103 -53
116 0 28 42 92 140 217 197 249 327 498 375 719 28 126 35 227 34 446 -2 331
6 342 232 332 223 -10 400 -50 487 -109 45 -31 90 -86 124 -152 11 -21 56 -77
99 -123 84 -89 90 -99 139 -229 41 -111 97 -194 167 -249 88 -69 148 -95 275
-116 277 -46 317 -67 569 -301 164 -152 209 -213 219 -295 5 -41 9 -53 15 -40
14 32 -4 110 -42 185 -41 81 -217 288 -346 409 -42 39 -77 73 -77 75 0 10 125
8 182 -3 88 -17 159 -50 212 -99 43 -40 176 -226 176 -247 0 -6 7 -16 15 -23
13 -11 13 -8 1 26 -46 127 -119 250 -185 312 -49 45 -143 96 -222 120 -36 11
-144 30 -240 41 -292 36 -351 55 -407 132 -23 30 -224 420 -270 522 -6 12 29
8 143 -18 165 -37 274 -35 508 12 177 35 192 36 257 25 85 -15 166 -50 202
-88 14 -16 54 -86 88 -156 71 -147 114 -197 196 -228 78 -29 205 -27 391 6
131 23 166 26 308 21 210 -7 332 -41 445 -126 l34 -26 -22 32 c-35 49 -80 83
-167 124 -155 73 -275 90 -555 81 -247 -8 -283 -6 -335 17 -53 23 -76 55 -154
207 -99 192 -156 244 -303 274 -32 6 -58 15 -58 20 0 5 15 17 33 28 17 12 90
64 161 117 153 113 227 151 329 167 97 15 196 1 343 -47 152 -49 202 -80 276
-173 86 -106 164 -178 223 -207 78 -36 205 -59 300 -52 106 8 255 29 255 37 0
4 -62 10 -137 13 -210 10 -341 50 -434 134 -23 21 -72 81 -110 134 -82 117
-140 169 -233 213 -137 64 -380 113 -509 101 -165 -14 -257 -55 -430 -190
-168 -131 -256 -174 -432 -211 -156 -33 -449 -19 -462 22 -3 10 166 173 475
457 245 225 262 233 552 254 171 13 230 13 360 3 85 -7 346 -16 580 -19 464
-8 472 -9 547 -69 21 -16 50 -47 66 -68 155 -218 222 -319 277 -423 90 -171
155 -240 277 -298 109 -52 116 -61 174 -229 54 -157 98 -252 162 -346 60 -91
81 -104 32 -20 -40 68 -93 218 -141 397 -18 72 -34 134 -34 139 0 14 132 -4
180 -25 59 -26 72 -39 141 -139 32 -47 91 -122 131 -167 41 -44 89 -109 107
-142 18 -34 34 -61 36 -61 7 0 -24 89 -46 131 -12 24 -47 82 -79 129 -78 117
-133 210 -128 216 3 2 41 -2 86 -10 117 -21 225 -76 280 -144 49 -62 53 -57
12 14 -31 55 -61 84 -134 130 -25 16 -45 31 -45 34 0 10 294 102 349 109 51 7
53 8 26 16 -34 9 -111 -2 -271 -39 -174 -41 -220 -36 -426 40 -64 24 -169 57
-234 74 -155 40 -213 69 -270 132 -40 44 -85 115 -85 132 0 3 28 3 63 0 104
-10 281 21 467 81 216 69 255 73 395 41 61 -14 149 -37 196 -50 82 -23 240
-45 228 -32 -3 3 -32 13 -63 21 -32 8 -117 39 -189 69 -174 71 -235 88 -323
89 -41 1 -74 2 -74 3 0 1 46 32 103 70 142 95 199 117 322 124 118 6 106 19
-25 27 -103 6 -158 -10 -282 -85 -183 -110 -289 -153 -483 -197 -119 -27 -242
-32 -310 -14 -52 14 -115 80 -182 189 -65 107 -76 135 -63 160 15 28 41 39
175 75 197 53 280 89 459 198 120 73 224 118 337 145 420 103 526 122 587 104
46 -14 115 -66 143 -108 11 -16 42 -101 70 -189 62 -194 95 -261 162 -333 61
-64 133 -103 259 -138 51 -15 146 -51 212 -81 180 -82 228 -96 328 -97 60 -1
91 3 100 12 11 11 5 13 -32 7 -89 -13 -181 22 -420 160 -69 39 -170 93 -225
119 -113 53 -142 78 -189 156 -40 66 -58 118 -90 267 -34 154 -75 228 -160
289 l-29 21 54 6 c90 11 195 -27 275 -100 17 -15 70 -73 117 -128 121 -143
401 -415 475 -463 75 -48 177 -84 322 -112 166 -33 323 -71 353 -87 45 -23 57
-66 57 -207 0 -232 48 -384 154 -484 63 -60 95 -71 37 -13 -86 86 -131 215
-131 375 0 100 8 166 20 166 5 0 22 -24 38 -53 18 -32 66 -86 122 -137 50 -46
101 -102 112 -124 12 -23 23 -35 26 -28 9 29 -33 104 -108 192 -81 96 -130
193 -130 261 l0 30 123 -6 c67 -4 147 -13 177 -22 57 -15 134 -65 160 -103 8
-12 55 -54 103 -93 99 -80 120 -108 142 -192 29 -114 16 -233 -50 -450 -84
-278 -85 -402 -5 -569 26 -56 120 -164 120 -140 0 6 -9 19 -21 30 -43 39 -81
141 -98 266 -11 78 0 187 31 303 11 44 34 130 50 190 25 93 30 136 35 273 5
136 8 162 21 162 25 0 244 -135 280 -173 18 -18 41 -56 52 -83 18 -47 19 -48
20 -16 1 82 -84 173 -285 307 -115 76 -345 264 -345 281 0 2 53 4 118 3 64 -1
178 2 252 6 291 16 426 -44 533 -235 20 -36 65 -148 100 -250 83 -238 99 -278
153 -376 30 -57 52 -115 69 -189 45 -191 103 -312 205 -428 23 -26 52 -52 64
-58 19 -10 18 -8 -5 17 -49 54 -122 196 -158 304 -22 68 -52 212 -46 218 2 2
46 -34 97 -80 51 -46 129 -108 173 -138 103 -69 186 -132 255 -193 59 -52 152
-107 213 -127 39 -12 66 -6 31 6 -35 13 -117 78 -239 188 -66 60 -156 134
-200 164 -111 78 -271 239 -338 342 -96 150 -116 199 -192 476 -85 311 -151
402 -325 455 -36 10 -105 23 -155 27 l-90 7 95 66 c245 169 357 214 599 239
51 5 95 11 98 14 11 11 -99 18 -196 13 -180 -11 -276 -46 -510 -190 -164 -101
-199 -111 -381 -110 -150 2 -195 9 -535 87 -60 13 -168 30 -240 35 -71 6 -213
27 -315 45 -102 19 -233 41 -293 49 -157 21 -199 46 -382 220 l-40 39 165 -6
c239 -8 320 -31 475 -136 84 -57 151 -91 224 -115 91 -30 259 -17 442 34 194
54 265 68 382 77 148 10 108 27 -65 27 -123 1 -163 -4 -283 -30 -306 -68 -320
-65 -596 129 -58 41 -129 84 -156 96 -53 22 -153 42 -217 42 -26 0 -37 3 -30
10 17 17 379 168 466 194 106 32 280 56 411 56 125 1 112 14 -29 31 -143 17
-337 6 -449 -25 -118 -32 -273 -87 -360 -126 -154 -70 -262 -100 -360 -100
-96 0 -142 28 -292 177 -194 192 -284 233 -514 233 -93 0 -149 -6 -226 -24
-57 -13 -103 -20 -103 -17 0 26 214 130 346 170 129 38 349 94 412 104 73 12
147 2 332 -44 101 -25 249 -49 302 -49 38 0 16 18 -30 24 -27 3 -122 30 -213
60 -90 29 -197 59 -236 66 -67 12 -97 29 -55 31 9 0 26 3 37 5 11 3 47 9 80
13 53 7 57 8 32 16 -68 19 -275 -12 -605 -90 -18 -4 -6 14 53 82 163 187 262
247 493 299 73 16 203 16 247 0 11 -4 8 0 -6 8 -40 23 -163 39 -244 32 -153
-15 -276 -70 -427 -192 -56 -46 -104 -82 -106 -80 -1 2 2 23 7 48 20 87 24
206 11 298 -10 73 -10 92 0 105 7 9 11 18 8 20 -3 3 -10 -5 -16 -18z"/>
</g>
</svg>
